HIERARCHY
ROOT Hips
{
  OFFSET -196.707 69.5913 -207.624
  CHANNELS 6 Xposition Yposition Zposition Zrotation Xrotation Yrotation
  JOINT ToSpine
  {
    OFFSET -2.69724 7.43032 -0.144315
    CHANNELS 3 Zrotation Xrotation Yrotation
    JOINT Spine
    {
      OFFSET -0.0310711 10.7595 1.96963
      CHANNELS 3 Zrotation Xrotation Yrotation
      JOINT Spine1
      {
        OFFSET 13.1342 3.43533 0.764692
        CHANNELS 3 Zrotation Xrotation Yrotation
        JOINT Neck
        {
          OFFSET 29.8703 7.82586 -0.130764
          CHANNELS 3 Zrotation Xrotation Yrotation
          JOINT Head
          {
            OFFSET 9.52751 0.295786 -0.907742
            CHANNELS 3 Zrotation Xrotation Yrotation
            End Site
            {
              OFFSET 16.4037 0.713936 2.7358
            }
          }
        }
        JOINT LeftShoulder
        {
          OFFSET 27.5574 4.95586 2.47156
          CHANNELS 3 Zrotation Xrotation Yrotation
          JOINT LeftArm
          {
            OFFSET 1.20734 -0.998971 20.1238
            CHANNELS 3 Zrotation Xrotation Yrotation
            JOINT LeftForeArm
            {
              OFFSET 26.8049 -0.0536703 -0.155908
              CHANNELS 3 Zrotation Xrotation Yrotation
              JOINT LeftHand
              {
                OFFSET 26.6817 0 0.320147
                CHANNELS 3 Zrotation Xrotation Yrotation
                End Site
                {
                  OFFSET 18.6119 0 0.382219
                }
              }
            }
          }
        }
        JOINT RightShoulder
        {
          OFFSET 27.5927 4.71444 -2.65209
          CHANNELS 3 Zrotation Xrotation Yrotation
          JOINT RightArm
          {
            OFFSET 2.83739 -1.17114 -18.7564
            CHANNELS 3 Zrotation Xrotation Yrotation
            JOINT RightForeArm
            {
              OFFSET 28.839 -0.0548439 1.22491
              CHANNELS 3 Zrotation Xrotation Yrotation
              JOINT RightHand
              {
                OFFSET 26.5114 0 -0.101894
                CHANNELS 3 Zrotation Xrotation Yrotation
                End Site
                {
                  OFFSET 18.2168 0 0
                }
              }
            }
          }
        }
      }
    }
  }
  JOINT LeftUpLeg
  {
    OFFSET -4.76168 -1.9167 -10.2353
    CHANNELS 3 Zrotation Xrotation Yrotation
    JOINT LeftLeg
    {
      OFFSET 2.55951 -42.0585 -8.02213
      CHANNELS 3 Zrotation Xrotation Yrotation
      JOINT LeftFoot
      {
        OFFSET 3.16357 -42.5282 -3.95426
        CHANNELS 3 Zrotation Xrotation Yrotation
        JOINT LeftToeBase
        {
          OFFSET 0.346054 -6.02161 12.8035
          CHANNELS 3 Zrotation Xrotation Yrotation
          End Site
          {
            OFFSET 0.134235 -1.35082 5.13018
          }
        }
      }
    }
  }
  JOINT RightUpLeg
  {
    OFFSET -4.94151 -1.41743 10.6446
    CHANNELS 3 Zrotation Xrotation Yrotation
    JOINT RightLeg
    {
      OFFSET -2.56294 -42.0364 -7.94377
      CHANNELS 3 Zrotation Xrotation Yrotation
      JOINT RightFoot
      {
        OFFSET -3.0952 -42.555 -4.02241
        CHANNELS 3 Zrotation Xrotation Yrotation
        JOINT RightToeBase
        {
          OFFSET -0.0828122 -6.13587 12.8035
          CHANNELS 3 Zrotation Xrotation Yrotation
          End Site
          {
            OFFSET -0.131328 -1.35082 5.13018
          }
        }
      }
    }
  }
}
MOTION
Frames:	18
Frame Time:	0.0333333
-188.795 95.7388 -199.432 66.5691 -33.8008 -13.9402 -70.1915 0 88.8779 58.5766 70.7188 29.8513 5.20876 22.955 2.12607 -154.964 21.9437 173.598 -159.783 61.0327 179.054 -0.0768827 -14.5946 -35.0951 -75.8146 44.0592 -73.2923 -15.4556 -1.50295 -83.8487 -1.92822 0.114182 -6.12221 -1.75182 5.19446 45.7779 -75.1565 -32.5621 81.6483 -17.2938 1.3488 85.2132 -2.65024 -0.152687 7.85626 -51.8629 0.693659 99.8301 -2.60439 29.8272 -3.92808 6.29657 -13.7269 -1.23205 0.0891952 -1.0609 2.07965 -50.9237 1.46992 82.2691 1.71691 25.6209 3.36265 -11.7699 -10.4748 1.41501 0.647958 -3.29313 -1.94667 
-188.7 95.7851 -199.47 67.0342 -33.5413 -13.611 -70.1915 0 88.8779 59.9194 70.8641 28.2393 4.90215 22.7959 2.3308 -154.781 21.8667 173.54 -160.096 60.9865 179.238 -0.0938998 -14.6508 -35.1968 -75.7378 44.0439 -73.2337 -15.8031 -1.50339 -83.9745 -1.97306 0.117274 -6.11231 -1.7475 5.13606 46.0609 -75.3094 -32.1369 81.3288 -17.7943 1.29904 85.5152 -2.68508 -0.152476 7.70853 -52.2866 0.497589 99.7772 -2.48227 29.6721 -4.24533 6.16981 -13.8042 -1.23309 0.00943464 -0.880204 2.04209 -51.2921 1.26282 82.1272 1.70792 25.7157 3.30451 -10.6909 -10.7633 1.36909 0.405331 -1.11891 -1.83658 
-188.593 95.7971 -199.529 67.6003 -33.3294 -13.174 -70.1915 0 88.8779 61.6228 71.0145 26.335 4.81182 22.5865 2.5345 -155.042 21.9492 173.804 -160.114 61.0468 178.884 -0.0689474 -14.5371 -35.2203 -75.7297 44.0727 -73.4741 -16.1302 -1.48781 -84.1438 -2.00169 0.118312 -6.05616 -1.72876 5.14989 45.6853 -75.2947 -32.4811 81.5143 -17.6039 1.27623 85.5379 -2.64105 -0.14863 7.6678 -52.793 0.400824 99.7597 -2.4104 29.5054 -4.55405 6.2866 -13.7761 -1.23321 0.0037964 -0.808785 1.89119 -51.6389 1.00363 81.8156 1.87762 26.0959 3.98513 -8.89506 -10.778 1.30471 0.755066 -2.01134 -3.5972 
-188.513 95.7622 -199.583 68.1171 -33.0234 -12.8659 -70.1915 0 88.8779 64.0884 71.2045 23.7652 4.2655 22.4571 2.35736 -154.906 21.9133 173.51 -159.573 60.9507 178.304 -0.0604727 -14.5296 -35.0663 -75.6071 44.1638 -73.4233 -16.4536 -1.44234 -84.4073 -1.99433 0.115408 -5.88199 -1.74584 5.22285 45.581 -75.3188 -32.6959 81.5058 -16.9074 1.24913 85.4361 -2.53074 -0.140988 7.67463 -53.072 0.206627 99.7803 -2.34609 29.6275 -4.7614 6.63897 -13.4717 -1.22913 0.261665 -1.25779 1.65952 -52.4586 0.727271 81.7145 2.08382 25.2323 2.66776 -11.8211 -10.3469 1.42023 0.501453 -3.11802 -1.00615 
-188.411 95.7843 -199.643 68.721 -32.7171 -12.5033 -70.1915 0 88.8779 66.0868 71.3041 21.6447 4.09137 22.3017 2.24167 -154.935 21.8798 173.772 -160.504 61.0098 179.011 -0.0765058 -14.5784 -35.1395 -75.764 44.0121 -73.282 -16.0499 -1.3755 -84.5101 -1.89977 0.107302 -5.74227 -1.73978 5.20536 45.5957 -75.3576 -32.6705 81.4883 -17.0859 1.2069 85.626 -2.51278 -0.137171 7.5235 -53.5663 -0.0402193 99.7483 -2.23809 29.5371 -5.23169 6.51578 -13.5122 -1.22882 0.146511 -1.19131 2.10875 -53.0344 0.370604 81.4331 2.26475 25.1741 2.68634 -11.7741 -10.5792 1.41255 0.57865 -3.70569 -1.09098 
-188.309 95.8333 -199.716 69.3237 -32.4568 -12.0494 -70.1915 0 88.8779 68.425 71.3655 19.2687 3.84478 22.1183 2.26821 -154.948 21.9313 173.955 -160.633 61.0753 179.201 -0.0886688 -14.627 -35.1994 -76.082 43.9477 -73.1991 -14.8168 -1.35581 -84.1601 -1.74071 0.0969655 -5.74713 -1.72456 5.18668 45.4188 -75.3219 -32.6803 81.7395 -16.7626 1.23313 85.4442 -2.46925 -0.134556 7.54722 -54.1302 -0.253551 99.6056 -2.0315 29.2895 -5.34479 6.65156 -13.4381 -1.22853 0.229939 -1.1588 1.5762 -53.1744 0.0596924 81.0752 2.35162 26.1494 3.77415 -7.96887 -11.2577 1.27579 0.580723 0.332413 -3.80684 
-188.219 95.8635 -199.808 69.6907 -32.2101 -11.8448 -70.1915 0 88.8779 70.454 71.3532 17.4363 3.51051 22.047 1.82838 -154.472 21.9003 173.606 -160.371 61.0228 178.902 -0.0592684 -14.5584 -34.9211 -75.7483 44.1173 -73.6679 -14.5301 -1.44661 -83.6992 -1.70681 0.0948345 -5.75471 -1.75296 5.19929 45.8516 -75.2161 -32.1541 81.6693 -17.1469 1.21822 85.5977 -2.48866 -0.133661 7.41288 -54.5003 -0.574857 99.491 -1.89096 29.0194 -5.58704 6.7879 -13.2513 -1.22611 0.23883 -1.34743 2.01585 -53.3841 -0.240803 80.8238 2.51082 26.4909 4.69627 -7.58027 -11.1835 1.26267 1.0125 0.341728 -6.42408 
-188.145 95.8352 -199.88 70.0672 -31.9032 -11.6533 -70.1915 0 88.8779 72.2046 71.3638 15.4631 3.16331 21.8263 1.92272 -154.33 22.0043 173.709 -159.909 61.0526 178.067 -0.0438263 -14.4799 -34.9414 -75.8567 44.152 -73.5703 -14.7787 -1.44264 -83.814 -1.70865 0.0936554 -5.63955 -1.74306 5.15307 45.9726 -75.1106 -31.8963 81.7119 -17.1585 1.16348 85.7821 -2.40841 -0.123953 7.14719 -54.6552 -0.84937 99.4128 -1.74767 29.1942 -5.76314 6.77454 -13.2102 -1.2251 0.220728 -1.21757 1.77698 -53.8504 -0.610358 80.6574 2.7184 26.098 3.56069 -8.8806 -10.8952 1.30426 0.680183 -1.02293 -3.68461 
-188.075 95.8177 -199.931 70.6742 -31.5836 -11.4793 -70.1915 0 88.8779 74.3824 71.4351 12.7906 2.61005 21.6301 2.15217 -154.045 21.8144 173.907 -160.284 60.8793 178.094 -0.0717985 -14.5815 -35.085 -76.4384 43.8362 -72.9712 -13.7473 -1.31892 -83.8889 -1.5443 0.081751 -5.50608 -1.75253 5.15328 46.1853 -75.0988 -31.5564 81.5836 -17.27 1.14328 85.8753 -2.35805 -0.117274 6.93027 -55.221 -1.33541 99.337 -1.51961 28.9591 -6.08552 6.58607 -13.2169 -1.22292 0.128378 -1.06522 1.8815 -54.7058 -1.02406 80.539 2.80901 25.3558 2.2816 -11.7611 -10.9904 1.40179 0.361159 -2.24069 -0.715328 
-187.999 95.8838 -199.981 71.0212 -31.3371 -11.0624 -70.1915 0 88.8779 76.2023 71.3561 11.2247 2.3226 21.5381 1.9686 -153.007 21.8346 173.497 -159.431 60.8266 177.525 -0.0951609 -14.6907 -35.0889 -76.2123 43.825 -73.2226 -13.7048 -1.368 -83.6681 -1.56773 0.0843984 -5.62203 -1.74769 5.13067 46.2182 -75.1846 -31.5751 81.4237 -17.6687 1.16354 85.9039 -2.44397 -0.115298 7.01209 -55.5569 -1.31618 99.2518 -1.42342 28.7902 -6.42864 6.709 -13.0771 -1.22147 0.295841 -1.39808 1.83806 -54.6916 -1.0288 80.3427 2.78178 26.2008 3.61556 -8.00243 -11.3788 1.27786 0.689296 -0.0530324 -4.26928 
-187.928 95.8915 -200.016 71.3881 -31.0767 -10.8855 -70.1915 0 88.8779 77.2422 71.3397 9.86812 2.24816 21.3698 2.2001 -152.468 21.7866 173.781 -159.606 60.7917 177.773 -0.0622174 -14.5851 -34.8893 -75.9583 44.1139 -73.7734 -13.8054 -1.37741 -83.6726 -1.58045 0.0842495 -5.6215 -1.7332 5.10414 46.107 -75.5533 -31.6226 81.3601 -17.3634 1.10319 86.0285 -2.36646 -0.114919 6.91331 -55.8455 -1.58992 99.1508 -1.2428 28.7355 -6.50798 6.73971 -12.9799 -1.21986 0.277133 -1.25789 1.57602 -55.0322 -1.28113 80.1346 2.92262 26.1958 3.889 -8.0661 -11.0531 1.27725 0.938502 -0.746753 -5.49613 
-187.912 95.8813 -200.041 71.7558 -30.88 -10.607 -70.1915 0 88.8779 79.1419 71.3982 7.71079 1.82594 21.2146 2.52401 -151.697 21.8382 173.877 -159.659 60.8215 177.321 -0.0848266 -14.6608 -35.0106 -75.9789 43.8812 -73.7721 -13.2219 -1.30519 -83.7214 -1.50592 0.0834433 -5.62107 -1.72526 5.11918 45.9139 -75.7988 -31.878 81.2112 -17.3136 1.0707 86.1251 -2.34975 -0.115783 6.88489 -56.0876 -1.58719 99.2198 -1.1906 28.8184 -7.0716 6.56635 -13.2592 -1.22363 0.0833027 -1.11292 2.24494 -55.5826 -1.23891 80.216 2.8396 25.678 2.51783 -9.55268 -11.5631 1.32396 0.447184 -0.614936 -2.43494 
-187.929 95.8647 -200.098 71.8251 -30.7918 -10.63 -70.1915 0 88.8779 80.7062 71.3869 5.87289 1.31278 21.0767 2.69504 -150.579 21.6161 173.798 -160.328 60.6265 176.827 -0.0670516 -14.5911 -34.9829 -75.731 43.7847 -74.0125 -13.973 -1.3205 -83.9747 -1.58573 0.0810235 -5.55903 -1.74867 5.18036 45.9961 -75.5951 -31.703 81.3948 -17.5061 1.09581 86.0877 -2.37525 -0.117333 6.87563 -56.0307 -1.64733 99.2664 -1.25392 28.9733 -7.189 6.66175 -13.1194 -1.22175 0.146546 -1.10969 1.89826 -55.648 -1.32071 80.2526 2.82865 25.4956 2.22652 -10.6817 -11.0827 1.36383 0.527622 -2.0713 -1.99281 
-187.966 95.8592 -200.134 71.9523 -30.7395 -10.4965 -70.1915 0 88.8779 82.578 71.3389 3.94376 1.0495 20.9959 2.66636 -149.157 21.4943 173.756 -161.418 60.5782 176.473 -0.0328423 -14.4899 -34.7698 -75.6938 43.491 -74.3824 -13.3679 -1.26069 -83.9747 -1.47747 0.0796779 -5.42524 -1.73719 5.13247 46.0119 -75.2642 -31.4938 81.9566 -17.7797 1.14719 85.9864 -2.41915 -0.118995 6.88558 -56.1493 -1.54758 99.3264 -1.3194 28.9103 -7.57161 6.73289 -13.212 -1.22462 0.00562758 -0.936682 2.20592 -55.4829 -1.19181 80.3211 2.67358 25.97 2.42658 -10.1631 -11.2796 1.34458 0.544995 -1.4539 -2.53166 
-188.112 95.8936 -200.191 71.9169 -30.8564 -10.4175 -70.1915 0 88.8779 83.4899 71.1769 3.36925 1.41805 20.9263 2.09948 -147.014 21.2204 173.871 -161.949 60.3303 176.371 -0.0339828 -14.5068 -34.7173 -75.7284 42.858 -74.9968 -14.2086 -1.35909 -83.914 -1.52712 0.0777868 -5.20917 -1.80846 5.26921 46.4871 -75.0837 -30.7079 82.6525 -18.1607 1.21461 85.8652 -2.44184 -0.120208 6.78155 -55.9548 -1.44042 99.3432 -1.21749 29.1171 -7.85913 6.66972 -13.1212 -1.22189 -0.0690255 -1.09192 3.00137 -55.4487 -0.85585 80.5725 2.50328 25.6944 1.60297 -10.9823 -11.1207 1.37307 0.405381 -2.14192 -1.09828 
-188.312 95.9735 -200.269 71.7276 -31.0365 -10.4532 -70.1915 0 88.8779 84.6321 71.1045 2.12926 1.63257 20.7695 2.26165 -145.016 20.9879 174.482 -163.402 60.1649 176.862 0.00102043 -14.3578 -34.7364 -75.6382 42.1307 -76.0056 -14.5013 -1.46704 -83.6079 -1.53029 0.0767391 -5.08162 -1.85702 5.43998 46.3999 -74.5611 -30.2705 83.7321 -19.0441 1.29857 85.8197 -2.50944 -0.121368 6.59938 -55.7356 -1.42849 99.1371 -1.06611 29.0039 -7.59749 6.61018 -13.072 -1.22002 -0.123812 -0.885702 2.75811 -54.2854 -0.525514 80.6127 2.09279 27.7998 5.27323 -5.047 -11.8958 1.20598 1.54106 1.3966 -9.85952 
-188.634 96.0275 -200.375 71.3484 -31.3655 -10.7657 -70.1915 0 88.8779 85.1325 71.1892 1.47685 2.06618 20.8058 2.05713 -142.209 21.0209 174.256 -163.306 60.2078 176.755 -0.0457258 -14.5605 -34.7437 -75.8184 41.0941 -76.9502 -14.4583 -1.54294 -83.2934 -1.41889 0.0664522 -4.66355 -1.8555 5.4012 46.7498 -73.7658 -29.4673 84.7112 -24.1838 1.34752 86.6493 -3.08886 -0.147613 6.185 -55.3363 -1.50919 99.0537 -0.967474 28.8087 -7.4706 6.45755 -12.4986 -1.20453 0.0445563 -1.50908 3.49568 -53.8469 -0.343138 80.9103 1.9413 27.2931 3.6125 -6.62734 -11.2717 1.23387 0.789625 0.731557 -5.25075 
-189.049 96.1008 -200.491 70.598 -31.7939 -11.336 -70.1915 0 88.8779 85.4691 71.4233 0.805815 2.44158 20.9208 2.23845 -139.815 21.0341 174.245 -163.238 60.2032 176.472 -0.131209 -14.8714 -35.0955 -76.0834 39.7541 -77.6644 -15.0289 -1.65671 -83.1079 -1.36375 0.0597129 -4.22034 -1.86773 5.37941 47.2174 -74.078 -28.0259 85.4481 -24.8559 1.42425 86.591 -3.05973 -0.139922 5.90695 -54.6713 -1.37558 99.0926 -1.10398 28.53 -6.87996 6.21639 -12.2294 -1.19314 0.0132041 -1.39252 3.35319 -52.9959 0.198037 81.4426 1.47911 27.0835 3.89452 -7.14659 -11.0384 1.24642 0.839919 1.03154 -5.6756 
